<svg width="125" height="125" viewBox="0 0 125 125" fill="none" xmlns="http://www.w3.org/2000/svg">
<g filter="url(#filter0_d_1477_5626)">
<circle cx="62.5" cy="62.5" r="32.5" fill="#D69E2E"/>
<path d="M53.5703 63.3747C52.9492 63.924 52.8906 64.8718 53.4385 65.4929C53.9922 66.1121 54.939 66.173 55.5577 65.6246C56.3546 64.9168 57.2546 64.3543 58.2108 63.9278L55.6145 61.893C54.8921 62.32 54.2078 62.8122 53.5703 63.3747ZM62.8091 67.5324C62.7058 67.5216 62.6054 67.5003 62.4994 67.5003C60.8424 67.5003 59.4995 68.8437 59.4995 70.5007C59.4995 72.1577 60.8428 73.5011 62.4994 73.5011C64.1559 73.5011 65.4993 72.1577 65.4993 70.5007C65.4993 70.1462 65.4269 69.8112 65.3139 69.4958L62.8091 67.5324ZM47.9613 58.3451C47.3637 58.9193 47.3444 59.8685 47.9174 60.4661C48.4902 61.0652 49.4393 61.0811 50.0384 60.5101C50.6234 59.9485 51.2505 59.4479 51.8951 58.9759L49.4426 57.0561C48.9326 57.4592 48.4372 57.8482 47.9613 58.3451ZM64.6044 63.22C66.3481 63.5856 68.059 64.4012 69.4417 65.6246C69.7277 65.8777 70.0839 65.9996 70.4355 65.9996C70.85 65.9996 71.2632 65.8282 71.5604 65.4929C72.0667 64.8699 72.0479 63.9231 71.4292 63.3747C68.9636 61.1997 65.7903 59.9997 62.4576 59.9997C61.8857 59.9997 61.2763 60.056 60.6717 60.0982L56.2234 56.653C58.2108 55.9077 60.3248 55.4999 62.4576 55.4999C67.1257 55.4999 71.5511 57.2797 74.9166 60.5107C75.2081 60.789 75.5817 60.9281 75.9553 60.9281C76.3493 60.9281 76.7432 60.7743 77.0376 60.4667C77.6104 59.8691 77.5912 58.9199 76.9937 58.3457C73.1073 54.5755 67.9465 52.5 62.4576 52.5C59.3451 52.5 56.2984 53.212 53.5187 54.5319L49.3193 51.2396C49.1131 51.0784 48.8684 51 48.6265 51C48.2928 51 47.9614 51.148 47.7402 51.4307C47.3564 51.9201 47.4416 52.6274 47.9309 53.0104L75.6806 74.7603C76.1728 75.1448 76.8792 75.0569 77.2598 74.5691C77.6436 74.0798 77.5584 73.3724 77.0691 72.9895L64.6044 63.22Z" fill="black"/>
</g>
<defs>
<filter id="filter0_d_1477_5626" x="0" y="0" width="125" height="125" filterUnits="userSpaceOnUse" color-interpolation-filters="sRGB">
<feFlood flood-opacity="0" result="BackgroundImageFix"/>
<feColorMatrix in="SourceAlpha" type="matrix" values="0 0 0 0 0 0 0 0 0 0 0 0 0 0 0 0 0 0 127 0" result="hardAlpha"/>
<feOffset/>
<feGaussianBlur stdDeviation="15"/>
<feComposite in2="hardAlpha" operator="out"/>
<feColorMatrix type="matrix" values="0 0 0 0 0.839216 0 0 0 0 0.619608 0 0 0 0 0.180392 0 0 0 0.5 0"/>
<feBlend mode="normal" in2="BackgroundImageFix" result="effect1_dropShadow_1477_5626"/>
<feBlend mode="normal" in="SourceGraphic" in2="effect1_dropShadow_1477_5626" result="shape"/>
</filter>
</defs>
</svg>
